<?xml version="1.0" encoding="UTF-8" standalone="no"?>
<!DOCTYPE svg PUBLIC "-//W3C//DTD SVG 1.1//EN" "http://www.w3.org/Graphics/SVG/1.1/DTD/svg11.dtd">
<svg width="100%" height="100%" viewBox="0 0 665 214" version="1.1" xmlns="http://www.w3.org/2000/svg" xmlns:xlink="http://www.w3.org/1999/xlink" xml:space="preserve" xmlns:serif="http://www.serif.com/" style="fill-rule:evenodd;clip-rule:evenodd;stroke-linejoin:round;stroke-miterlimit:2;">
    <g transform="matrix(1.25488,0,0,1.25488,-66.1045,-30.0993)">
        <g transform="matrix(0.473969,0,0,0.473969,52.5522,56.2852)">
            <path d="M106.666,213.401C165.43,213.401 213.067,165.763 213.067,107C213.067,48.237 165.43,0.599 106.666,0.599C47.903,0.599 0.266,48.237 0.266,107C0.266,131.307 8.417,153.711 22.134,171.627C22.512,180.016 21.49,198.134 14.417,206.056C9.301,211.786 31.059,214.294 60.777,203.024C74.671,209.676 90.234,213.401 106.666,213.401Z" style="fill:url(#_Linear1);fill-rule:nonzero;"/>
            <path d="M51.137,112.374C51.137,110.395 52.741,108.791 54.72,108.791L58.338,108.791L59.377,134.585L54.72,134.585C52.741,134.585 51.137,132.982 51.137,131.003L51.137,112.374Z" style="fill:url(#_Linear2);fill-rule:nonzero;"/>
            <path d="M57.796,95.353C57.473,87.047 57.311,82.894 58.827,79.707C60.16,76.906 62.366,74.612 65.114,73.172C68.239,71.533 72.395,71.533 80.707,71.533L133.342,71.533C141.654,71.533 145.81,71.533 148.935,73.172C151.683,74.612 153.889,76.906 155.222,79.707C156.738,82.894 156.576,87.047 156.253,95.353L154.455,141.567C154.153,149.309 154.003,153.18 152.4,156.124C150.99,158.716 148.814,160.808 146.17,162.117C143.166,163.604 139.292,163.604 131.544,163.604L82.505,163.604C74.757,163.604 70.883,163.604 67.879,162.117C65.235,160.808 63.059,158.716 61.649,156.124C60.046,153.18 59.896,149.309 59.594,141.567L57.796,95.353Z" style="fill:white;fill-rule:nonzero;"/>
            <path d="M68.756,93.721C68.608,89.982 68.535,88.112 69.217,86.677C69.816,85.416 70.809,84.384 72.046,83.735C73.452,82.997 75.323,82.997 79.065,82.997L134.984,82.997C138.726,82.997 140.597,82.997 142.004,83.735C143.24,84.384 144.233,85.416 144.833,86.677C145.514,88.112 145.441,89.982 145.294,93.721L143.342,143.303C143.205,146.785 143.137,148.526 142.415,149.851C141.78,151.016 140.802,151.957 139.612,152.546C138.26,153.214 136.518,153.214 133.033,153.214L81.017,153.214C77.531,153.214 75.789,153.214 74.437,152.546C73.248,151.957 72.269,151.016 71.634,149.851C70.913,148.526 70.844,146.785 70.707,143.303L68.756,93.721Z" style="fill:url(#_Linear3);fill-rule:nonzero;"/>
            <path d="M162.912,112.732C162.912,110.556 161.147,108.791 158.971,108.791L155.747,108.791L154.672,134.585L158.971,134.585C161.147,134.585 162.912,132.821 162.912,130.645L162.912,112.732Z" style="fill:url(#_Linear4);fill-rule:nonzero;"/>
            <path d="M72.274,52.546L141.058,52.546L138.628,71.416C113.962,78.405 99.913,78.112 74.705,71.416L72.274,52.546Z" style="fill:url(#_Linear5);fill-rule:nonzero;"/>
            <path d="M106.757,67.939L168.468,44.664L45.047,44.664L106.757,67.939Z" style="fill:rgb(51,51,51);fill-rule:nonzero;"/>
            <rect x="92.955" y="163.604" width="28.139" height="15.097" style="fill:url(#_Linear6);"/>
            <path d="M99.756,177.598C79.296,176.882 64.759,194.063 60.81,203.011C60.81,203.011 78.902,213.401 106.308,213.401C133.714,213.401 152.164,203.19 152.164,203.19C146.6,187.441 128.114,177.598 113.756,177.598L99.756,177.598Z" style="fill:white;fill-rule:nonzero;"/>
            <path d="M91.441,107.179C88.374,107.179 85.888,109.665 85.888,112.732C85.888,114.018 84.845,115.061 83.559,115.061C82.273,115.061 81.231,114.018 81.231,112.732C81.231,107.093 85.802,102.522 91.441,102.522C97.08,102.522 101.651,107.093 101.651,112.732C101.651,114.018 100.608,115.061 99.322,115.061C98.036,115.061 96.994,114.018 96.994,112.732C96.994,109.665 94.507,107.179 91.441,107.179Z" style="fill:rgb(51,51,51);"/>
            <path d="M121.892,107.179C118.825,107.179 116.339,109.665 116.339,112.732C116.339,114.018 115.297,115.061 114.011,115.061C112.724,115.061 111.682,114.018 111.682,112.732C111.682,107.093 116.253,102.522 121.892,102.522C127.531,102.522 132.102,107.093 132.102,112.732C132.102,114.018 131.06,115.061 129.774,115.061C128.488,115.061 127.445,114.018 127.445,112.732C127.445,109.665 124.959,107.179 121.892,107.179Z" style="fill:rgb(51,51,51);"/>
            <path d="M116.507,128.853C120.373,128.853 123.589,132.201 121.534,135.475C118.702,139.986 113.106,143.183 106.666,143.183C100.227,143.183 94.631,139.986 91.799,135.475C89.743,132.201 92.96,128.853 96.826,128.853L116.507,128.853Z" style="fill:rgb(51,51,51);fill-rule:nonzero;"/>
        </g>
        <g transform="matrix(1,0,0,1,-81.5514,0.810312)">
            <path d="M350.329,131.27C344.869,131.27 340.179,130.22 336.259,128.12C332.339,126.02 329.329,123.057 327.229,119.23C325.176,115.403 324.149,110.923 324.149,105.79C324.149,101.963 324.733,98.487 325.899,95.36C327.113,92.233 328.839,89.55 331.079,87.31C333.366,85.07 336.119,83.367 339.339,82.2C342.606,80.987 346.269,80.38 350.329,80.38C352.476,80.38 354.693,80.637 356.979,81.15C359.313,81.617 361.366,82.34 363.139,83.32C364.446,84.02 365.356,84.907 365.869,85.98C366.383,87.053 366.546,88.15 366.359,89.27C366.219,90.39 365.823,91.393 365.169,92.28C364.516,93.167 363.676,93.773 362.649,94.1C361.623,94.38 360.503,94.217 359.289,93.61C357.889,92.957 356.489,92.467 355.089,92.14C353.736,91.767 352.313,91.58 350.819,91.58C347.926,91.58 345.499,92.14 343.539,93.26C341.626,94.333 340.179,95.92 339.199,98.02C338.219,100.12 337.729,102.71 337.729,105.79C337.729,108.87 338.219,111.483 339.199,113.63C340.179,115.73 341.626,117.34 343.539,118.46C345.499,119.533 347.926,120.07 350.819,120.07C352.033,120.07 353.339,119.93 354.739,119.65C356.139,119.323 357.516,118.833 358.869,118.18C360.269,117.573 361.506,117.41 362.579,117.69C363.699,117.97 364.586,118.53 365.239,119.37C365.939,120.21 366.383,121.19 366.569,122.31C366.756,123.383 366.593,124.457 366.079,125.53C365.613,126.603 364.773,127.467 363.559,128.12C361.926,129.1 359.896,129.87 357.469,130.43C355.089,130.99 352.709,131.27 350.329,131.27Z" style="fill:rgb(26,26,26);fill-rule:nonzero;"/>
            <path d="M395.762,131.27C390.769,131.27 386.382,130.22 382.602,128.12C378.822,125.973 375.882,122.987 373.782,119.16C371.729,115.333 370.702,110.877 370.702,105.79C370.702,101.963 371.285,98.487 372.452,95.36C373.665,92.233 375.369,89.55 377.562,87.31C379.802,85.07 382.462,83.367 385.542,82.2C388.622,80.987 392.029,80.38 395.762,80.38C400.755,80.38 405.119,81.43 408.852,83.53C412.632,85.63 415.572,88.593 417.672,92.42C419.772,96.2 420.822,100.657 420.822,105.79C420.822,109.617 420.215,113.093 419.002,116.22C417.835,119.347 416.132,122.053 413.892,124.34C411.699,126.58 409.062,128.307 405.982,129.52C402.902,130.687 399.495,131.27 395.762,131.27ZM395.762,120.49C398.235,120.49 400.335,119.907 402.062,118.74C403.789,117.573 405.119,115.893 406.052,113.7C406.985,111.507 407.452,108.87 407.452,105.79C407.452,101.17 406.425,97.577 404.372,95.01C402.319,92.443 399.449,91.16 395.762,91.16C393.335,91.16 391.235,91.743 389.462,92.91C387.735,94.03 386.405,95.687 385.472,97.88C384.539,100.027 384.072,102.663 384.072,105.79C384.072,110.41 385.099,114.027 387.152,116.64C389.205,119.207 392.075,120.49 395.762,120.49Z" style="fill:rgb(26,26,26);fill-rule:nonzero;"/>
            <path d="M429.507,131.13C428.06,131.13 426.847,130.803 425.867,130.15C424.887,129.45 424.28,128.517 424.047,127.35C423.813,126.137 424.023,124.783 424.677,123.29L442.107,85.77C442.947,83.95 443.973,82.62 445.187,81.78C446.447,80.94 447.87,80.52 449.457,80.52C451.043,80.52 452.42,80.94 453.587,81.78C454.8,82.62 455.85,83.95 456.737,85.77L474.167,123.29C474.913,124.783 475.17,126.137 474.937,127.35C474.75,128.563 474.167,129.497 473.187,130.15C472.253,130.803 471.087,131.13 469.687,131.13C467.82,131.13 466.373,130.71 465.347,129.87C464.367,129.03 463.48,127.677 462.687,125.81L458.907,116.92L463.807,120.49L434.967,120.49L439.937,116.92L436.157,125.81C435.317,127.677 434.453,129.03 433.567,129.87C432.68,130.71 431.327,131.13 429.507,131.13ZM449.317,94.59L441.197,113.98L439.237,110.62L459.607,110.62L457.647,113.98L449.457,94.59L449.317,94.59Z" style="fill:rgb(26,26,26);fill-rule:nonzero;"/>
            <path d="M504.275,131.27C498.815,131.27 494.125,130.22 490.205,128.12C486.285,126.02 483.275,123.057 481.175,119.23C479.121,115.403 478.095,110.923 478.095,105.79C478.095,101.963 478.678,98.487 479.845,95.36C481.058,92.233 482.785,89.55 485.025,87.31C487.311,85.07 490.065,83.367 493.285,82.2C496.551,80.987 500.215,80.38 504.275,80.38C506.421,80.38 508.638,80.637 510.925,81.15C513.258,81.617 515.311,82.34 517.085,83.32C518.391,84.02 519.301,84.907 519.815,85.98C520.328,87.053 520.491,88.15 520.305,89.27C520.165,90.39 519.768,91.393 519.115,92.28C518.461,93.167 517.621,93.773 516.595,94.1C515.568,94.38 514.448,94.217 513.235,93.61C511.835,92.957 510.435,92.467 509.035,92.14C507.681,91.767 506.258,91.58 504.765,91.58C501.871,91.58 499.445,92.14 497.485,93.26C495.571,94.333 494.125,95.92 493.145,98.02C492.165,100.12 491.675,102.71 491.675,105.79C491.675,108.87 492.165,111.483 493.145,113.63C494.125,115.73 495.571,117.34 497.485,118.46C499.445,119.533 501.871,120.07 504.765,120.07C505.978,120.07 507.285,119.93 508.685,119.65C510.085,119.323 511.461,118.833 512.815,118.18C514.215,117.573 515.451,117.41 516.525,117.69C517.645,117.97 518.531,118.53 519.185,119.37C519.885,120.21 520.328,121.19 520.515,122.31C520.701,123.383 520.538,124.457 520.025,125.53C519.558,126.603 518.718,127.467 517.505,128.12C515.871,129.1 513.841,129.87 511.415,130.43C509.035,130.99 506.655,131.27 504.275,131.27Z" style="fill:rgb(26,26,26);fill-rule:nonzero;"/>
            <path d="M533.988,131.13C531.935,131.13 530.348,130.57 529.228,129.45C528.108,128.283 527.548,126.65 527.548,124.55L527.548,87.1C527.548,84.953 528.108,83.32 529.228,82.2C530.348,81.08 531.935,80.52 533.988,80.52C536.088,80.52 537.675,81.08 538.748,82.2C539.868,83.32 540.428,84.953 540.428,87.1L540.428,100.19L560.798,100.19L560.798,87.1C560.798,84.953 561.335,83.32 562.408,82.2C563.528,81.08 565.138,80.52 567.238,80.52C569.291,80.52 570.855,81.08 571.928,82.2C573.048,83.32 573.608,84.953 573.608,87.1L573.608,124.55C573.608,126.65 573.048,128.283 571.928,129.45C570.855,130.57 569.291,131.13 567.238,131.13C565.138,131.13 563.528,130.57 562.408,129.45C561.335,128.283 560.798,126.65 560.798,124.55L560.798,110.76L540.428,110.76L540.428,124.55C540.428,126.65 539.891,128.283 538.818,129.45C537.745,130.57 536.135,131.13 533.988,131.13Z" style="fill:rgb(26,26,26);fill-rule:nonzero;"/>
            <path d="M589.297,130.5C587.104,130.5 585.424,129.94 584.257,128.82C583.137,127.653 582.577,125.997 582.577,123.85L582.577,87.8C582.577,85.653 583.137,84.02 584.257,82.9C585.424,81.733 587.104,81.15 589.297,81.15L613.027,81.15C614.707,81.15 615.967,81.57 616.807,82.41C617.647,83.25 618.067,84.463 618.067,86.05C618.067,87.683 617.647,88.943 616.807,89.83C615.967,90.67 614.707,91.09 613.027,91.09L594.897,91.09L594.897,100.47L611.487,100.47C613.121,100.47 614.357,100.89 615.197,101.73C616.084,102.57 616.527,103.807 616.527,105.44C616.527,107.073 616.084,108.31 615.197,109.15C614.357,109.99 613.121,110.41 611.487,110.41L594.897,110.41L594.897,120.56L613.027,120.56C614.707,120.56 615.967,121.003 616.807,121.89C617.647,122.73 618.067,123.943 618.067,125.53C618.067,127.163 617.647,128.4 616.807,129.24C615.967,130.08 614.707,130.5 613.027,130.5L589.297,130.5Z" style="fill:rgb(26,26,26);fill-rule:nonzero;"/>
            <path d="M643.232,131.27C641.365,131.27 639.405,131.13 637.352,130.85C635.345,130.617 633.432,130.243 631.612,129.73C629.792,129.217 628.158,128.61 626.712,127.91C625.452,127.303 624.565,126.51 624.052,125.53C623.539,124.503 623.352,123.43 623.492,122.31C623.632,121.19 624.028,120.21 624.682,119.37C625.335,118.483 626.198,117.9 627.272,117.62C628.345,117.293 629.559,117.433 630.912,118.04C632.685,118.88 634.692,119.533 636.932,120C639.172,120.467 641.272,120.7 643.232,120.7C646.312,120.7 648.459,120.303 649.672,119.51C650.932,118.67 651.562,117.643 651.562,116.43C651.562,115.357 651.119,114.493 650.232,113.84C649.392,113.187 647.875,112.627 645.682,112.16L637.492,110.41C633.012,109.477 629.675,107.843 627.482,105.51C625.289,103.177 624.192,100.167 624.192,96.48C624.192,94.053 624.682,91.86 625.662,89.9C626.689,87.893 628.112,86.19 629.932,84.79C631.798,83.39 633.992,82.317 636.512,81.57C639.079,80.777 641.925,80.38 645.052,80.38C647.479,80.38 649.928,80.66 652.402,81.22C654.922,81.733 657.092,82.527 658.912,83.6C659.985,84.16 660.755,84.93 661.222,85.91C661.689,86.89 661.875,87.917 661.782,88.99C661.688,90.017 661.315,90.927 660.662,91.72C660.055,92.513 659.215,93.05 658.142,93.33C657.115,93.563 655.878,93.377 654.432,92.77C653.078,92.163 651.538,91.72 649.812,91.44C648.132,91.113 646.499,90.95 644.912,90.95C643.185,90.95 641.715,91.16 640.502,91.58C639.288,91.953 638.355,92.513 637.702,93.26C637.095,94.007 636.792,94.87 636.792,95.85C636.792,96.83 637.189,97.67 637.982,98.37C638.822,99.023 640.338,99.583 642.532,100.05L650.652,101.8C655.178,102.78 658.562,104.39 660.802,106.63C663.042,108.87 664.162,111.787 664.162,115.38C664.162,117.807 663.672,120 662.692,121.96C661.712,123.92 660.312,125.6 658.492,127C656.672,128.353 654.479,129.403 651.912,130.15C649.345,130.897 646.452,131.27 643.232,131.27Z" style="fill:rgb(26,26,26);fill-rule:nonzero;"/>
            <path d="M252.524,131.13C251.077,131.13 249.864,130.803 248.884,130.15C247.904,129.45 247.297,128.517 247.064,127.35C246.831,126.137 247.041,124.783 247.694,123.29L265.124,85.77C265.964,83.95 266.991,82.62 268.204,81.78C269.464,80.94 270.887,80.52 272.474,80.52C274.061,80.52 275.437,80.94 276.604,81.78C277.817,82.62 278.867,83.95 279.754,85.77L297.184,123.29C297.931,124.783 298.187,126.137 297.954,127.35C297.767,128.563 297.184,129.497 296.204,130.15C295.271,130.803 294.104,131.13 292.704,131.13C290.837,131.13 289.391,130.71 288.364,129.87C287.384,129.03 286.497,127.677 285.704,125.81L281.924,116.92L286.824,120.49L257.984,120.49L262.954,116.92L259.174,125.81C258.334,127.677 257.471,129.03 256.584,129.87C255.697,130.71 254.344,131.13 252.524,131.13ZM272.334,94.59L264.214,113.98L262.254,110.62L282.624,110.62L280.664,113.98L272.474,94.59L272.334,94.59Z" style="fill:url(#_Linear7);fill-rule:nonzero;"/>
            <path d="M310.043,131.13C307.989,131.13 306.403,130.57 305.283,129.45C304.163,128.283 303.603,126.65 303.603,124.55L303.603,87.1C303.603,84.953 304.163,83.32 305.283,82.2C306.403,81.08 307.989,80.52 310.043,80.52C312.143,80.52 313.729,81.08 314.803,82.2C315.923,83.32 316.483,84.953 316.483,87.1L316.483,124.55C316.483,126.65 315.946,128.283 314.873,129.45C313.799,130.57 312.189,131.13 310.043,131.13Z" style="fill:url(#_Linear8);fill-rule:nonzero;"/>
        </g>
    </g>
    <defs>
        <linearGradient id="_Linear1" x1="0" y1="0" x2="1" y2="0" gradientUnits="userSpaceOnUse" gradientTransform="matrix(189.886,231.7,-231.7,189.886,0.265625,0.599365)"><stop offset="0" style="stop-color:rgb(82,183,136);stop-opacity:1"/><stop offset="1" style="stop-color:rgb(35,151,137);stop-opacity:1"/></linearGradient>
        <linearGradient id="_Linear2" x1="0" y1="0" x2="1" y2="0" gradientUnits="userSpaceOnUse" gradientTransform="matrix(8.2398,0,0,8.2398,51.1372,121.634)"><stop offset="0" style="stop-color:rgb(163,207,201);stop-opacity:1"/><stop offset="1" style="stop-color:rgb(181,227,221);stop-opacity:1"/></linearGradient>
        <linearGradient id="_Linear3" x1="0" y1="0" x2="1" y2="0" gradientUnits="userSpaceOnUse" gradientTransform="matrix(61.1975,82.2929,-82.2929,61.1975,68.3335,82.9971)"><stop offset="0" style="stop-color:rgb(82,183,136);stop-opacity:0.3"/><stop offset="1" style="stop-color:rgb(35,151,137);stop-opacity:0.3"/></linearGradient>
        <linearGradient id="_Linear4" x1="0" y1="0" x2="1" y2="0" gradientUnits="userSpaceOnUse" gradientTransform="matrix(-8.24,1.00911e-15,-1.00911e-15,-8.24,162.912,121.634)"><stop offset="0" style="stop-color:rgb(163,207,201);stop-opacity:1"/><stop offset="1" style="stop-color:rgb(181,227,221);stop-opacity:1"/></linearGradient>
        <linearGradient id="_Linear5" x1="0" y1="0" x2="1" y2="0" gradientUnits="userSpaceOnUse" gradientTransform="matrix(68.7838,0,0,68.7838,72.2742,64.4967)"><stop offset="0" style="stop-color:rgb(67,67,67);stop-opacity:1"/><stop offset="1" style="stop-color:rgb(100,100,100);stop-opacity:1"/></linearGradient>
        <linearGradient id="_Linear6" x1="0" y1="0" x2="1" y2="0" gradientUnits="userSpaceOnUse" gradientTransform="matrix(28.1389,0,0,28.1389,92.9551,171.121)"><stop offset="0" style="stop-color:rgb(163,207,201);stop-opacity:1"/><stop offset="1" style="stop-color:rgb(181,227,221);stop-opacity:1"/></linearGradient>
        <linearGradient id="_Linear7" x1="0" y1="0" x2="1" y2="0" gradientUnits="userSpaceOnUse" gradientTransform="matrix(40.533,67.929,-67.929,40.533,246.972,80.52)"><stop offset="0" style="stop-color:rgb(82,183,136);stop-opacity:1"/><stop offset="1" style="stop-color:rgb(35,151,137);stop-opacity:1"/></linearGradient>
        <linearGradient id="_Linear8" x1="0" y1="0" x2="1" y2="0" gradientUnits="userSpaceOnUse" gradientTransform="matrix(40.533,67.929,-67.929,40.533,246.972,80.52)"><stop offset="0" style="stop-color:rgb(82,183,136);stop-opacity:1"/><stop offset="1" style="stop-color:rgb(35,151,137);stop-opacity:1"/></linearGradient>
    </defs>
</svg>
